Coordinates
version=1
nRows=20
nColumns=34
inDegrees=yes

Units are S.I. units (second, meters, Newtons, ...)
If the header above contains a line with 'inDegrees', this indicates whether rotational values are in degrees (yes) or radians (no).

endheader
time	pelvis_tilt	pelvis_list	pelvis_rotation	pelvis_tx	pelvis_ty	pelvis_tz	hip_flexion_r	hip_adduction_r	hip_rotation_r	knee_angle_r	ankle_angle_r	subtalar_angle_r	mtp_angle_r	hip_flexion_l	hip_adduction_l	hip_rotation_l	knee_angle_l	ankle_angle_l	subtalar_angle_l	mtp_angle_l	lumbar_extension	lumbar_bending	lumbar_rotation	arm_flex_r	arm_add_r	arm_rot_r	elbow_flex_r	pro_sup_r	arm_flex_l	arm_add_l	arm_rot_l	elbow_flex_l	pro_sup_l
      3.90000000	     -1.23697613	     -4.84037459	      5.06023228	      0.69385679	      1.12237100	     -0.19034421	     23.55978279	      3.52010558	     -4.97061501	     13.99165505	     -3.35681219	    -19.36957930	      0.00000000	    -12.50297886	     -4.21945916	      4.63264609	     13.25751535	     24.20074237	     -3.28180438	      0.00000000	     -4.31370969	      6.65572220	    -12.19271993	     -4.49262666	     -6.15072223	    -13.32334412	     28.69283656	     92.13266451	   -176.64433370	   -168.35928241	   -189.61705603	     42.60541894	     98.50117224
      3.91666670	     -1.52134966	     -5.35190918	      4.89307017	      0.70603426	      1.12294559	     -0.18799970	     23.27732318	      4.26258620	     -4.41098306	     14.78403986	     -4.19193873	    -19.83183298	      0.00000000	    -12.32539994	     -4.84757112	      4.41374563	     15.56247234	     24.58851526	     -4.05236554	      0.00000000	     -4.19252594	      7.63970317	    -11.62314151	     -5.18575332	     -6.59968109	    -12.72885813	     30.74251936	     92.00834305	   -177.27872520	   -168.86017387	   -189.63052770	     42.36638585	     98.47098820
      3.93333330	     -1.77505053	     -5.50063897	      4.24414168	      0.72447098	      1.12562003	     -0.18163680	     23.16138202	      4.83477207	     -3.51385107	     15.79131779	     -4.41250791	    -19.96258574	      0.00000000	    -11.73113381	     -5.08578640	      3.61819756	     18.44815055	     24.61680439	     -4.86290838	      0.00000000	     -4.35848733	      8.14283217	    -10.79045849	     -5.72596852	     -7.00836738	    -12.03958708	     32.43429672	     91.90798843	   -178.22782220	   -169.35964649	   -189.86448265	     42.42415459	     98.43011961
      3.95000000	     -1.74322525	     -5.64579832	      3.64090063	      0.74864968	      1.12855407	     -0.17422820	     22.88511995	      5.48564153	     -2.82408096	     17.27784569	     -4.40500594	    -20.27564742	      0.00000000	    -10.90533970	     -5.57348982	      2.38769798	     22.19405669	     24.47466468	     -5.30728848	      0.00000000	     -4.69975109	      8.52942712	    -10.01044083	     -6.13468553	     -7.26139666	    -11.39445771	     33.48791244	     91.82793915	   -179.28481262	   -169.85306077	   -190.24324191	     42.27837480	     98.40694733
      3.96666670	     -1.41977384	     -5.85933575	      3.37696423	      0.76896757	      1.13051914	     -0.16945666	     22.49883510	      6.14108950	     -2.50617737	     19.19713078	     -4.11887139	    -21.04895532	      0.00000000	     -9.33085030	     -6.45689635	      1.17585798	     27.49476216	     24.25598754	     -5.61601228	      0.00000000	     -5.30370639	      8.89717279	     -9.31978291	     -6.45106181	     -7.41383209	    -10.85279126	     33.86733264	     91.76306416	   -179.97737600	   -170.37219039	   -190.49948338	     41.98658350	     98.42987866
      3.98333330	     -1.00788892	     -6.22420328	      3.30464890	      0.78068258	      1.13170733	     -0.16762131	     22.12657161	      6.83915093	     -2.51387371	     21.00697874	     -3.47945243	    -22.07393888	      0.00000000	     -6.70547169	     -7.66957606	      0.21713322	     34.15654204	     23.70247829	     -6.33814462	      0.00000000	     -6.21990852	      9.47699514	     -8.69786180	     -6.55254382	     -7.55917970	    -10.45250144	     33.88245752	     91.71750752	   -180.23571719	   -170.90133112	   -190.55538181	     41.74413302	     98.48493303
      4.00000000	     -1.00066570	     -6.74099199	      3.20409051	      0.79076872	      1.13219003	     -0.16655692	     22.00367963	      7.63300641	     -2.58105112	     22.10874041	     -2.82560268	    -23.07542575	      0.00000000	     -3.27077624	     -8.96169673	     -0.40523513	     40.65577992	     22.80663001	     -7.57759750	      0.00000000	     -6.89606610	     10.32407289	     -8.04997660	     -6.64757946	     -7.77895034	     -9.97111469	     33.79526033	     91.66967419	   -180.35864639	   -171.45734216	   -190.55718846	     41.52508501	     98.58370610
      4.01666670	     -1.13818227	     -7.09917946	      2.95771872	      0.80922180	      1.13265412	     -0.16476696	     21.43847741	      8.30487036	     -2.43903335	     22.22412101	     -2.11488438	    -23.77139349	      0.00000000	     -0.00378891	     -9.92755695	     -0.92277813	     45.97269298	     21.86466852	     -9.08760253	      0.00000000	     -7.27416302	     11.06180782	     -7.39644966	     -6.55532164	     -8.03330460	     -9.52577350	     33.45367165	     91.62317728	   -180.63675760	   -172.01214254	   -190.53948222	     41.11226894	     98.70848811
      4.03333330	     -1.28250784	     -7.18673400	      2.91879106	      0.83905494	      1.13365683	     -0.16271009	     19.98239518	      8.67874112	     -2.25099559	     21.37550506	     -1.44762440	    -24.20038943	      0.00000000	      2.77907099	    -10.47731438	     -1.14682738	     50.05411405	     20.72666661	    -10.20863011	      0.00000000	     -6.87695217	     11.42187976	     -6.93168944	     -6.68181331	     -8.22327478	     -8.77097495	     32.29353839	     91.50932208	   -181.15545073	   -172.54276695	   -190.58933568	     39.80268378	     99.00668900
      4.05000000	     -0.84610300	     -7.21964081	      3.09356055	      0.87351114	      1.13585210	     -0.16175318	     16.95268533	      9.06536477	     -1.80876192	     19.52613926	     -0.61258569	    -24.27252695	      0.00000000	      4.35650338	    -10.91395540	     -1.18015396	     52.99988839	     19.49450353	    -10.26092313	      0.00000000	     -6.48573206	     11.72569535	     -6.38606584	     -7.36643572	     -8.30172964	     -8.61800580	     31.41950884	     91.47557600	   -182.30604204	   -173.17898316	   -190.52985987	     39.00703481	     99.10232694
      4.06666670	     -0.12773518	     -6.97634608	      3.47604175	      0.90127791	      1.13836246	     -0.16254675	     13.29334023	      9.08856590	     -1.46045777	     17.32251617	      0.64800282	    -23.68447093	      0.00000000	      5.57688653	    -10.80363063	     -0.50555108	     55.15432050	     17.78787318	    -10.03260480	      0.00000000	     -6.00353166	     11.61224861	     -5.91197175	     -7.60118135	     -8.25249554	     -8.21770666	     29.60913718	     91.38303623	   -182.90096657	   -173.85931107	   -190.57652786	     36.69849120	     99.38751909
      4.08333330	      0.16151854	     -6.23199937	      3.13193071	      0.91821047	      1.14080992	     -0.16243724	     10.39612476	      8.58481424	     -0.64391215	     15.45620830	      1.98447950	    -23.11555102	      0.00000000	      7.50245153	     -9.99883804	     -0.08939342	     56.91457628	     16.54747115	     -9.65782609	      0.00000000	     -5.56004739	     10.86185353	     -5.11834089	     -7.75148393	     -8.19308180	     -7.83009597	     28.96488223	     91.35013878	   -183.94139322	   -174.47509429	   -190.65469342	     35.47514176	     99.57500148
      4.10000000	      0.15295440	     -5.26253605	      2.28331347	      0.92808388	      1.14435263	     -0.15999245	      8.40098331	      7.80700258	      0.33203281	     13.97688372	      3.35799617	    -22.94506511	      0.00000000	     10.35191837	     -8.91160949	      0.10387822	     58.38979667	     16.20252485	     -9.40257371	      0.00000000	     -5.80952506	      9.85289268	     -4.19740287	     -7.22270911	     -8.11077057	     -7.52383461	     29.08610635	     91.36364176	   -184.81991220	   -174.89003916	   -190.73162651	     34.91911739	     99.65037726
      4.11666670	     -0.32790219	     -4.17052826	      1.06837662	      0.94037677	      1.14795284	     -0.15496179	      7.33986479	      6.83721277	      1.06710276	     12.75973179	      4.92332159	    -21.64622609	      0.00000000	     13.63315935	     -7.80465825	     -0.18459796	     59.17954083	     16.62292960	     -9.92287640	      0.00000000	     -6.16603573	      8.54213776	     -2.82003172	     -6.39785490	     -8.24141455	     -6.35644668	     29.41251450	     91.44873333	   -185.31738521	   -175.34390974	   -191.13823709	     34.49956895	     99.87794844
      4.13333330	     -0.66823443	     -3.06197143	      0.31901519	      0.95887221	      1.15116293	     -0.14786514	      6.18148329	      5.91364101	      1.78077224	     11.53079980	      5.80421975	    -21.12223697	      0.00000000	     16.13800274	     -6.89672785	     -0.56316837	     58.69013396	     17.53629439	    -10.41079255	      0.00000000	     -6.62577033	      7.10416770	     -2.03805331	     -5.52069947	     -8.03118145	     -6.00677263	     29.98932167	     91.47199377	   -186.03718213	   -175.38967641	   -191.15975250	     34.17066394	     99.96507043
      4.15000000	     -1.00927388	     -2.20186778	      0.01125010	      0.97724363	      1.15280424	     -0.14051551	      5.17222678	      5.24756485	      1.79158619	     10.66460906	      7.32543765	    -19.37310353	      0.00000000	     18.25630526	     -6.31670497	     -0.80496393	     57.47555813	     18.15049349	    -11.13071247	      0.00000000	     -6.86217713	      5.63713344	     -0.93776552	     -5.19393601	     -7.97472672	     -5.06216481	     30.92398544	     91.53682441	   -186.51692865	   -175.27293227	   -191.05213666	     33.93040312	    100.27470544
      4.16666670	     -1.23424493	     -1.52754675	      0.14371322	      0.98926973	      1.15373825	     -0.13494928	      4.15376913	      4.81146707	      1.80683605	      9.86743205	      7.97470512	    -18.99968570	      0.00000000	     20.22533286	     -5.85325398	     -0.75195593	     55.75051781	     19.01315292	    -11.35219342	      0.00000000	     -6.93941887	      4.31332002	     -0.51808881	     -4.80151598	     -7.72453410	     -4.87364725	     31.70049653	     91.54133368	   -187.13738844	   -175.00470379	   -190.95358743	     33.57164567	    100.38407072
      4.18333330	     -1.65744749	     -1.23706759	      0.19874284	      0.99520411	      1.15277160	     -0.13197615	      3.85509388	      4.69869659	      1.50426477	      9.58761803	      9.16812880	    -17.87917532	      0.00000000	     22.58427997	     -5.69330686	     -0.54309621	     53.69617762	     19.57821241	    -11.59642057	      0.00000000	     -7.08719684	      3.47436712	      0.07792165	     -4.67693977	     -7.82582826	     -4.50512768	     34.09546868	     91.57137882	   -187.40613298	   -174.69723260	   -190.45045230	     33.21536776	    100.72078044
      4.20000000	     -2.04702593	     -1.05447724	      0.08061536	      1.00234238	      1.15100878	     -0.13140799	      3.76606119	      4.64770876	      1.67248694	      9.44083546	      9.89939457	    -17.74075550	      0.00000000	     24.67211457	     -5.59236130	     -0.52808953	     50.78067581	     19.58548715	    -11.83371151	      0.00000000	     -7.26646823	      2.82824022	      0.44282158	     -3.96382811	     -8.05883037	     -4.36703092	     36.25837533	     91.61553211	   -187.58303771	   -174.55702622	   -190.17624102	     32.69354415	    100.89815302
      4.21666670	     -2.50747328	     -1.05163194	     -0.19459575	      1.01717483	      1.15020900	     -0.13274329	      3.84583378	      4.68063741	      1.70299777	      9.52329788	     10.48872294	    -17.34594565	      0.00000000	     26.50289654	     -5.66775509	     -0.79041676	     47.43456342	     18.88107821	    -12.78763657	      0.00000000	     -7.54560942	      2.54935115	      0.99303664	     -3.28075724	     -8.59985044	     -4.03973243	     39.38323178	     91.75661831	   -187.54523686	   -174.62104911	   -189.97470876	     31.96216289	    101.02927287
